<svg xmlns="http://www.w3.org/2000/svg" viewBox="0 0 24 24" fill="currentColor" aria-hidden="true">
  <path d="M12 2.163c3.204 0 3.584.012 4.85.07 1.366.062 2.633.334 3.608 1.308.974.974 1.246 2.241 1.308 3.608.058 1.266.07 1.646.07 4.85s-.012 3.584-.07 4.85c-.062 1.366-.334 2.633-1.308 3.608-.974.974-2.241 1.246-3.608 1.308-1.266.058-1.646.07-4.85.07s-3.584-.012-4.85-.07c-1.366-.062-2.633-.334-3.608-1.308-.974-.974-1.246-2.241-1.308-3.608C2.175 15.747 2.163 15.367 2.163 12s.012-3.584.07-4.85c.062-1.366.334-2.633 1.308-3.608.974-.974 2.241-1.246 3.608-1.308C8.416 2.175 8.796 2.163 12 2.163zm0-2.163C8.741 0 8.332.014 7.052.072 5.775.13 4.602.428 3.635 1.395 2.668 2.362 2.37 3.535 2.312 4.812.254 6.092.24 6.501.24 12c0 5.499.014 5.908.072 7.188.058 1.277.356 2.45 1.323 3.417.967.967 2.14 1.265 3.417 1.323 1.28.058 1.689.072 7.188.072s5.908-.014 7.188-.072c1.277-.058 2.45-.356 3.417-1.323.967-.967 1.265-2.14 1.323-3.417.058-1.28.072-1.689.072-7.188 0-5.499-.014-5.908-.072-7.188-.058-1.277-.356-2.45-1.323-3.417C21.398.428 20.225.13 18.948.072 17.668.014 17.259 0 12 0zm0 5.838a6.162 6.162 0 1 0 0 12.324 6.162 6.162 0 0 0 0-12.324zM12 16a4 4 0 1 1 0-8 4 4 0 0 1 0 8zm6.406-11.845a1.44 1.44 0 1 0 0 2.881 1.44 1.44 0 0 0 0-2.881z"/>
</svg>
