<svg xmlns="http://www.w3.org/2000/svg" viewBox="0 0 24 24" fill="currentColor" aria-hidden="true">
  <path d="M12.206.793c.99 0 4.347.276 5.93 3.821.529 1.193.403 3.219.299 4.847l-.003.06c-.012.18-.022.345-.03.51.075.045.203.09.401.09.3-.016.659-.12 1.033-.301.165-.088.344-.104.464-.104.182 0 .359.029.509.09.45.149.734.479.734.838.015.449-.39.839-1.213 1.168-.089.029-.209.075-.344.119-.45.135-1.139.36-1.333.81-.09.224-.061.524.12.868l.015.015c.06.136 1.526 3.475 4.791 4.014.255.044.435.27.42.509 0 .075-.015.149-.045.225-.24.569-1.273.988-3.146 1.271-.059.091-.12.375-.164.57-.029.179-.074.36-.134.553-.076.271-.27.405-.555.405h-.03c-.135 0-.313-.031-.538-.074-.36-.075-.765-.135-1.273-.135-.3 0-.599.015-.913.074-.6.104-1.123.464-1.723.884-.853.599-1.826 1.288-3.294 1.288l-.06-.001-.059.001c-1.468 0-2.441-.689-3.293-1.288-.6-.42-1.123-.78-1.723-.884-.314-.06-.629-.074-.914-.074-.54 0-.99.075-1.273.135-.255.045-.435.074-.555.074-.357 0-.495-.21-.539-.405-.06-.18-.105-.375-.135-.554-.044-.18-.105-.479-.165-.57-1.889-.282-2.921-.701-3.146-1.286-.045-.075-.06-.149-.06-.225-.015-.24.165-.464.42-.509 3.264-.54 4.73-3.879 4.791-4.02l.016-.029c.18-.345.224-.645.119-.869-.195-.434-.884-.658-1.332-.809-.121-.029-.24-.074-.346-.119-1.107-.435-1.257-.93-1.197-1.273.09-.479.674-.793 1.168-.793.146 0 .27.029.383.074.42.194.789.299 1.104.299.234 0 .384-.06.465-.104l-.046-.494c-.105-1.628-.225-3.654.303-4.847C7.71 1.069 11.067.793 12.057.793h.149z"/>
</svg>
