<svg xmlns="http://www.w3.org/2000/svg" viewBox="0 0 24 24" fill="currentColor" aria-hidden="true">
  <path d="M12.186 24h-.007c-3.581-.024-6.334-1.205-8.184-3.509C2.35 18.44 1.5 15.586 1.472 12.01v-.017c.03-3.579.879-6.43 2.525-8.482C5.845 1.205 8.6.024 12.18 0h.014c2.746.02 5.043.725 6.826 2.098 1.677 1.29 2.858 3.13 3.509 5.467l-2.04.569c-1.104-3.96-3.898-5.984-8.304-6.015-2.91.022-5.11.936-6.54 2.717C4.307 6.504 3.616 8.914 3.589 12c.027 3.086.718 5.496 2.057 7.164 1.43 1.781 3.631 2.695 6.54 2.717 2.623-.02 4.358-.631 5.8-2.045 1.647-1.613 1.618-3.593 1.09-4.798-.31-.71-.873-1.3-1.634-1.75-.192 1.352-.622 2.446-1.284 3.272-.886 1.102-2.14 1.704-3.73 1.79-1.202.065-2.361-.218-3.259-.801-1.063-.689-1.685-1.74-1.752-2.964-.065-1.19.408-2.285 1.33-3.082.88-.76 2.119-1.207 3.583-1.291a13.853 13.853 0 0 1 3.02.142c-.126-.742-.375-1.332-.74-1.755-.5-.578-1.272-.872-2.295-.879h-.032c-.822 0-1.939.225-2.652 1.298L7.71 9.143c.956-1.418 2.508-2.198 4.389-2.198h.044c3.146.02 5.02 1.945 5.207 5.305.107.046.212.093.318.142 1.49.7 2.58 1.761 3.154 3.07.797 1.82.871 4.785-1.548 7.155-1.85 1.81-4.094 2.628-7.18 2.65zM12.024 13.385c-.182 0-.366.005-.553.015-1.84.103-2.991.973-2.91 2.31.07 1.36 1.504 1.846 2.683 1.787 1.103-.06 2.557-.518 2.857-3.582a10.16 10.16 0 0 0-2.077-.53z"/>
</svg>
