<?xml version="1.0" encoding="UTF-8"?>
<svg xmlns="http://www.w3.org/2000/svg" viewBox="0 0 360 640" fill="none">
  <defs>
    <linearGradient id="bg2" x1="0" y1="640" x2="360" y2="0" gradientUnits="userSpaceOnUse">
      <stop stop-color="#f1e4d6"/>
      <stop offset=".45" stop-color="#e8d4b0"/>
      <stop offset="1" stop-color="#5ba8d4"/>
    </linearGradient>
  </defs>
  <rect width="360" height="640" fill="url(#bg2)"/>
  <text x="32" y="72" fill="#0f1f3d" font-family="system-ui,sans-serif" font-size="11" font-weight="700" letter-spacing=".14em">COMMUNAUTÉ CRÉATIVE</text>
  <text x="32" y="108" fill="#0f1f3d" font-family="system-ui,sans-serif" font-size="26" font-weight="800">Engagement</text>
  <text x="32" y="138" fill="#159e8e" font-family="system-ui,sans-serif" font-size="26" font-weight="800">×3</text>
  <rect x="24" y="168" width="312" height="140" rx="22" fill="#f6f3ed" stroke="#0f1f3d" stroke-opacity=".06"/>
  <circle cx="60" cy="210" r="22" fill="#5ba8d4"/>
  <rect x="96" y="196" width="180" height="10" rx="5" fill="#1a3054" fill-opacity=".15"/>
  <rect x="96" y="216" width="140" height="8" rx="4" fill="#1a3054" fill-opacity=".1"/>
  <rect x="96" y="244" width="200" height="44" rx="12" fill="#1a3054" fill-opacity=".08"/>
  <rect x="24" y="324" width="312" height="140" rx="22" fill="#0f1f3d"/>
  <text x="48" y="364" fill="#f6f3ed" font-family="system-ui,sans-serif" font-size="14" font-weight="700">Formats UGC</text>
  <text x="48" y="388" fill="#f6f3ed" fill-opacity=".65" font-family="system-ui,sans-serif" font-size="11">Stories, reels, partenariats</text>
  <rect x="48" y="408" width="120" height="32" rx="16" fill="#159e8e"/>
  <text x="108" y="429" text-anchor="middle" fill="#f6f3ed" font-family="system-ui,sans-serif" font-size="11" font-weight="700">Actif</text>
  <rect x="24" y="480" width="148" height="120" rx="20" fill="#f6f3ed"/>
  <rect x="188" y="480" width="148" height="120" rx="20" fill="#159e8e"/>
  <text x="98" y="548" text-anchor="middle" fill="#0f1f3d" font-family="system-ui,sans-serif" font-size="22" font-weight="800">UGC</text>
  <text x="262" y="548" text-anchor="middle" fill="#f6f3ed" font-family="system-ui,sans-serif" font-size="22" font-weight="800">Live</text>
</svg>
