<?xml version="1.0" encoding="UTF-8"?>
<svg xmlns="http://www.w3.org/2000/svg" viewBox="0 0 1200 675">
  <defs>
    <linearGradient id="p01bg" x1="0" y1="0" x2="1200" y2="675" gradientUnits="userSpaceOnUse">
      <stop stop-color="#0f1f3d"/>
      <stop offset=".45" stop-color="#1a3054"/>
      <stop offset="1" stop-color="#5ba8d4"/>
    </linearGradient>
    <linearGradient id="p01ph" x1="490" y1="130" x2="710" y2="550" gradientUnits="userSpaceOnUse">
      <stop stop-color="#159e8e"/>
      <stop offset="1" stop-color="#d4b483"/>
    </linearGradient>
  </defs>
  <rect width="1200" height="675" fill="url(#p01bg)"/>
  <rect x="80" y="180" width="240" height="240" rx="18" fill="#f6f3ed"/>
  <rect x="80" y="180" width="240" height="48" rx="18" fill="#5ba8d4"/>
  <rect x="100" y="310" width="200" height="90" rx="12" fill="#1a3054"/>
  <text x="200" y="365" text-anchor="middle" fill="#f6f3ed" font-family="Arial,sans-serif" font-size="22" font-weight="700">+34K</text>
  <rect x="470" y="95" width="260" height="500" rx="36" fill="#1a1020" stroke="#f6f3ed" stroke-opacity=".2" stroke-width="3"/>
  <rect x="490" y="130" width="220" height="420" rx="8" fill="url(#p01ph)"/>
  <text x="600" y="300" text-anchor="middle" fill="#f6f3ed" font-family="Arial,sans-serif" font-size="28" font-weight="700">PayApp</text>
  <rect x="530" y="360" width="140" height="36" rx="18" fill="#f6f3ed"/>
  <text x="600" y="384" text-anchor="middle" fill="#0f1f3d" font-family="Arial,sans-serif" font-size="13" font-weight="700">Download</text>
  <rect x="860" y="220" width="220" height="280" rx="18" fill="#f6f3ed"/>
  <rect x="860" y="220" width="220" height="140" rx="18" fill="#159e8e"/>
  <text x="970" y="295" text-anchor="middle" fill="#f6f3ed" font-family="Arial,sans-serif" font-size="16" font-weight="700">Teasing</text>
  <text x="600" y="640" text-anchor="middle" fill="#f6f3ed" fill-opacity=".45" font-family="Arial,sans-serif" font-size="13" letter-spacing="4">CAMPAGNE FINTECH LANCEMENT</text>
</svg>
